<svg xmlns="http://www.w3.org/2000/svg" xmlns:xlink="http://www.w3.org/1999/xlink" width="100" height="100" viewBox="0 0 100 100"><circle stroke="none" fill="#FFFFFF" r="48%" cx="50%" cy="50%"></circle><g transform="translate(50 50) scale(0.69 0.69) rotate(0) translate(-50 -50)" style="fill:#0059B3"><svg fill="#0059B3" xmlns="http://www.w3.org/2000/svg" xmlns:xlink="http://www.w3.org/1999/xlink" version="1.1" x="0px" y="0px" viewBox="0 0 100 100" style="enable-background:new 0 0 100 100;" xml:space="preserve"><path d="M77.7,66.9c0.1,0.3,0,0.8-0.1,1.3c-0.2,0.7-0.8,1.4-1.9,1.6c-1.3,0.3-2.7-0.6-3-1.8c0-0.2-0.2-0.2-0.4-0.1  c-0.6,0.5-1.9,1.6-2.7,2.2c3,1.1,4.8,2.5,4.8,4c0.1,2.4-4.2,4.4-10.8,5.7c4.2-1.1,6.8-2.6,6.8-4.2c0-1.2-1.4-2.4-3.9-3.3  c-5.8,3.4-12.8,5.3-20.5,5.3c-7.5,0-14.4-1.8-20.1-5.1c-2.2,0.9-3.4,2-3.4,3.1c0,1.7,2.6,3.1,6.8,4.2c-6.7-1.3-11-3.3-11-5.7  c0-1.4,1.6-2.7,4.3-3.8c-1.9-1.4-3.7-3.1-5.2-4.9C9.8,67.9,5,71.4,5,75.3c0,7.7,18.5,14,41.3,14c22.9,0,41.3-6.2,41.3-14  c0-3.4-3.6-6.5-9.6-8.9C77.6,66.2,77.6,66.5,77.7,66.9z"></path><path d="M95,38.7c0-4.3-2.6-6.7-8-6.7c-3.3,0-5.3,2-6.4,3.6c0,0,0-0.1,0-0.1c-0.6-2.9-5.3-5.1-12.2-6.5l11.1-14  c1.4-2.1,0.1-4-2.8-4.1c-2.9-0.1-6.5,1.5-7.9,3.7l-6.9,13.4C57,27.3,51.7,27,46,27c-18.8,0-33.6,3.8-34.3,7.8  c-0.6,3.2-1.2,5.6-1.2,9c0,19.6,15.9,31.9,35.5,31.9c10.7,0,20.2-3.6,26.7-10.1c0,0,0,0.1,0,0.1c0,1.2,1,2.2,2.2,2.2  c1.2,0,2.2-1,2.2-2.2c0-0.6-0.3-1.2-0.7-1.6C82.6,60.9,95,52.5,95,38.7z M30.8,71.4C25.6,69.4,8.7,58.8,13,36.5  c2.1,5,12.9,7.6,31.9,7.2c0,0-23.5,5.4-24.2,13.7C20,64.4,30.8,71.4,30.8,71.4z M46,42.6c-17.6,0-31.9-3.2-31.9-7.1  c0-3.9,14.2-7.1,31.9-7.1c5.5,0,10.6,0.3,15.1,0.8l-6.2,12c1.6,0,3.1-0.1,4.1-0.3l8.4-10.7c6.5,1.3,10.5,3.2,10.5,5.3  C77.9,39.4,63.6,42.6,46,42.6z M78.2,58.1c1.9-3.8,3.1-8.1,3.3-12.9c1.2-0.1,2.2-1.2,2.2-2.5c0-0.8-0.4-1.6-1-2c0,0,0,0,0,0  c-0.6-0.1,1.1-4.2,4.3-4.3c3.3,0,4.1,2,4.1,3.4c0,4.4-1.6,7.5-4.1,11C84.8,53.9,80.4,56.8,78.2,58.1z"></path></svg></g></svg>